<svg aria-hidden="true" style="position: absolute; width: 0; height: 0; overflow: hidden;" version="1.1" xmlns="http://www.w3.org/2000/svg" xmlns:xlink="http://www.w3.org/1999/xlink">
<defs>
<symbol id="icon-Averkin" viewBox="0 0 32 32">
<path d="M6.24 9.6c-0.704 0.16-1.664 0.416-2.144 0.608l-0.896 0.352v3.36c0 1.856 0.064 3.36 0.128 3.36s1.056-0.224 2.176-0.512c2.464-0.64 4.864-0.48 10.848 0.704 4.928 0.992 9.344 1.152 11.328 0.448l1.28-0.48 0.096-3.456c0.032-1.888-0.032-3.424-0.16-3.424s-0.96 0.224-1.824 0.48c-2.176 0.672-2.72 0.64-2.528-0.16 0.096-0.416-0.032-0.704-0.352-0.832-0.672-0.256-1.504 0.416-1.248 1.024 0.128 0.32-0.064 0.448-0.64 0.448-1.216 0-1.824-0.32-1.824-0.992 0-0.448-0.224-0.608-0.8-0.608-0.512 0-0.8 0.192-0.8 0.48 0 0.608-0.16 0.608-4-0.128-4.096-0.8-7.040-1.024-8.64-0.672zM13.76 10.432c1.504 0.256 3.168 0.576 3.68 0.736l0.96 0.288-1.184 0.032c-1.024 0.032-1.216 0.128-1.216 0.736v0.704l-0.512-0.704c-0.544-0.8-2.272-0.96-2.976-0.32-0.352 0.32-0.416 0.32-0.224 0 0.16-0.256-0.032-0.384-0.608-0.384-0.64 0-0.928 0.256-1.28 1.024l-0.448 1.056-0.352-1.056c-0.288-0.768-0.576-1.024-1.152-1.024-0.416 0-0.768 0.064-0.768 0.128s0.352 1.088 0.8 2.272c0.448 1.152 0.672 2.048 0.512 1.952s-0.704-1.344-1.184-2.784c-0.672-1.888-1.12-2.688-1.568-2.816-0.48-0.128-0.288-0.224 0.64-0.384 1.472-0.224 3.104-0.096 6.88 0.544zM4.768 12.064c-0.384 1.024-0.736 1.92-0.8 1.984s-0.128-0.672-0.128-1.664c0-1.76 0.096-1.92 1.344-2.112 0.128 0-0.064 0.8-0.416 1.792zM28.8 11.68c0 0.416-0.128 0.448-0.64 0.16-0.352-0.192-0.64-0.416-0.64-0.48 0-0.096 0.288-0.16 0.64-0.16s0.64 0.224 0.64 0.48zM20.96 11.808c0.096 0.16 0.032 0.384-0.16 0.512-0.16 0.096-0.32-0.032-0.32-0.288 0-0.576 0.192-0.672 0.48-0.224zM25.6 16.32c0.544 0 0.64-0.224 0.64-1.408 0-0.832 0.192-1.536 0.448-1.792 0.416-0.32 0.48-0.096 0.576 1.344 0.096 1.472 0.192 1.696 0.832 1.792 1.056 0.16 0.864 0.672-0.48 1.248-1.888 0.8-5.408 0.672-11.136-0.352-2.816-0.512-5.248-1.056-5.408-1.184s-0.064-0.768 0.224-1.472c0.48-1.12 0.512-1.152 0.512-0.352 0.032 0.928 1.344 2.176 2.304 2.176 0.352 0 0.896-0.288 1.216-0.608 0.608-0.608 0.608-0.608 0.768 0 0.096 0.352 0.448 0.608 0.832 0.608 0.608 0 0.672-0.192 0.672-1.6 0-1.376 0.096-1.6 0.608-1.6 0.544 0 0.64 0.256 0.736 1.504 0.096 1.312 0.192 1.536 0.832 1.632 0.576 0.096 0.704-0.032 0.704-0.8v-0.896l0.736 0.896c0.608 0.768 0.896 0.896 1.984 0.8l1.28-0.096 0.16-2.24 0.128-2.24 0.128 2.304c0.096 2.080 0.16 2.336 0.704 2.336zM23.040 13.824v1.376l-0.64-0.8c-0.544-0.736-0.544-0.832-0.096-1.344 0.288-0.32 0.576-0.576 0.64-0.576 0.032 0 0.096 0.608 0.096 1.344zM6.944 15.2c0.096 0.288 0.096 0.576 0.032 0.64-0.352 0.352-3.136 1.024-3.136 0.768 0-0.16 0.224-0.288 0.48-0.288 0.288 0 0.64-0.352 0.8-0.8 0.352-0.896 1.504-1.088 1.824-0.32z"></path>
</symbol>
</defs>
</svg>
